<?xml version="1.0" encoding="iso-8859-1"?>
<!-- Generator: Adobe Illustrator 19.0.0, SVG Export Plug-In . SVG Version: 6.00 Build 0)  -->
<svg version="1.1" id="Layer_1" xmlns="http://www.w3.org/2000/svg" xmlns:xlink="http://www.w3.org/1999/xlink" x="0px" y="0px"
	 viewBox="0 0 512.001 512.001" style="enable-background:new 0 0 512.001 512.001;" xml:space="preserve">
<g>
	<g>
		<path d="M506.592,250.593h-18.584c-16.721,0-40.898-29.089-57.488-69.168c-15.883-38.371-19.133-73.004-7.905-84.221
			c0.271-0.271,14.405-14.573,14.405-14.573c2.112-2.112,2.112-5.536,0-7.648c-2.111-2.11-5.534-2.111-7.648,0l-15.726,15.726
			c-4.546,3.575-12.043,5.46-21.868,5.46c-22.531,0-55.383-9.957-83.694-25.367c-28.791-15.673-46.677-33.607-46.677-46.806V5.408
			c0-2.986-2.422-5.408-5.408-5.408c-2.986,0-5.408,2.422-5.408,5.408v18.585c0,29.447-83.605,69.799-131.057,69.799
			c-11.812,0-20.509-2.456-25.154-7.102c-0.077-0.077-11.754-11.709-11.754-11.709c-2.112-2.111-5.535-2.111-7.648,0
			c-2.112,2.112-2.112,5.536,0,7.648l12.154,12.154c11.456,12.414,7.847,50.059-8.74,90.095c-16.03,38.69-38.4,65.713-54.402,65.713
			H5.408c-2.986,0-5.408,2.422-5.408,5.408c0,2.986,2.422,5.408,5.408,5.408h18.584c16.789,0,41.09,29.222,57.783,69.484
			c15.225,36.723,18.843,69.993,9.219,82.465L74.98,429.372c-2.112,2.112-2.112,5.536,0,7.648c1.057,1.056,2.44,1.583,3.824,1.583
			c1.383,0,2.768-0.528,3.824-1.583c0,0,14.483-14.285,14.772-14.575c4.32-4.325,12.318-6.612,23.127-6.612
			c22.478,0,55.251,9.957,83.495,25.366c28.726,15.672,46.57,33.608,46.57,46.81c0,0.003,0.001,0.006,0.001,0.011v18.573
			c0,2.986,2.422,5.408,5.408,5.408c2.986,0,5.408-2.422,5.408-5.408v-18.609c0.045-29.447,83.648-69.776,131.106-69.776
			c11.655,0,20.271,2.393,24.963,6.917l11.895,11.896c1.057,1.056,2.44,1.583,3.824,1.583c1.384,0,2.768-0.528,3.824-1.583
			c2.112-2.112,2.112-5.536,0-7.648c0,0-11.726-11.773-11.93-11.951c-11.682-12.225-8.116-50.088,8.56-90.351
			c16.013-38.661,38.366-65.662,54.357-65.662h18.584c2.986,0,5.408-2.422,5.408-5.408
			C512.001,253.014,509.578,250.593,506.592,250.593z M119.535,104.608c39.27,0,105.249-25.963,131.057-56.214v45.091
			c0,8.37-12.458,20.303-31.74,30.401c-19.567,10.249-42.508,16.871-58.443,16.871c-7.835,0-13.531-1.556-16.473-4.5
			c-0.054-0.054-0.118-0.091-0.175-0.143l-31.843-31.842C114.334,104.491,116.868,104.608,119.535,104.608z M188.745,284.867
			c5.92,14.282,5.84,24.166,3.907,26.833l-39.32,39.319c-0.001-14.129-4.726-31.238-10.879-46.08
			c-6.45-15.559-16.241-32.735-27.405-43.531h55.595v0C174.155,261.408,182.4,269.561,188.745,284.867z M187.724,261.408h55.221
			l-38.714,38.714c-1.099-8.069-4.046-15.904-5.494-19.397C195.924,273.943,192.132,266.951,187.724,261.408z M200.068,319.652
			c0.335-0.335,1.764-1.43,6.09-1.43c7.74,0,19.155,3.499,29.082,8.915c11.263,6.144,15.352,11.87,15.352,14.22
			c0,0.003,0.001,0.006,0.001,0.011v55.631c-8.543-8.821-20.077-15.785-26.599-19.344c-21.359-11.652-45.457-18.89-62.89-18.89
			c-0.076,0-0.148,0.004-0.224,0.004C160.88,358.767,199.945,319.774,200.068,319.652z M211.836,307.811l38.756-38.755v55.29
			C240.2,315.988,224.285,309.455,211.836,307.811z M211.016,203.37c12.107-1.476,28.78-7.573,39.576-15.901v55.476L211.016,203.37z
			 M242.943,250.593h-55.504c5.041-6.577,8.579-14.369,10.052-17.924c2.831-6.837,5.114-14.522,5.917-21.611L242.943,250.593z
			 M187.499,228.528c-6.236,15.052-13.745,22.065-16.856,22.065h-55.929c10.183-10.084,19.116-25.789,25.373-40.888
			c6.496-15.677,11.742-34.878,11.463-50.505l39.816,39.817C193.81,201.654,193.829,213.251,187.499,228.528z M88.385,189.02
			c10.018-24.179,18.027-54.295,15.997-76.986l32.172,32.172c7.461,8.148,4.734,34.337-6.461,61.36
			c-10.81,26.091-26.206,45.027-36.61,45.027H48.526C64.469,236.955,78.677,212.452,88.385,189.02z M91.765,326.75
			c-9.961-24.029-25.5-50.81-42.875-65.342h44.593c10.954,0,27.713,20.495,38.98,47.674c10.265,24.759,12.967,47.848,6.742,56.064
			l-32.198,32.196C108.501,376.693,101.32,349.795,91.765,326.75z M250.592,463.232c-12.039-14.353-31.146-25.939-41.391-31.528
			c-29.716-16.211-64.522-26.686-88.675-26.686c-2.146,0-4.18,0.102-6.155,0.257c0,0,31.444-31.306,31.679-31.541
			c2.716-2.719,7.921-4.155,15.054-4.155c34.29,0,89.488,30.185,89.488,48.937c0,0.003,0.001,0.006,0.001,0.011V463.232z
			 M250.593,170.634h-0.001c0,0.003-0.001,0.008-0.001,0.011c0,7.471-27.223,22.26-44.797,22.26c-4.85,0-6.46-1.234-6.838-1.612
			c-0.029-0.029-0.064-0.048-0.093-0.077l-39.667-39.667c0.406,0.008,0.8,0.024,1.214,0.024c17.822,0,42.137-6.938,63.461-18.106
			c7.864-4.119,18.708-10.637,26.722-18.685V170.634z M420.527,185.56c9.895,23.906,25.335,50.551,42.621,65.031h-44.632
			c-10.907,0-27.576-20.4-38.774-47.452c-10.708-25.871-13.184-49.938-5.889-57.227c0.199-0.199,31.468-31.583,31.468-31.583
			C403.675,135.098,410.893,162.287,420.527,185.56z M324.299,250.592h-55.242l38.8-38.8c1.079,8.145,4.057,16.077,5.516,19.601
			C316.161,238.131,319.923,245.078,324.299,250.592z M319.714,199.997c0.105-0.105,0.182-0.226,0.276-0.339l38.886-38.886
			c-0.076,14.227,4.669,31.518,10.872,46.503c6.406,15.478,16.132,32.561,27.233,43.316h-55.626v0.001
			c-3.493,0-11.688-8.109-17.99-23.336C317.191,212.34,317.536,202.173,319.714,199.997z M324.563,261.408
			c-5.036,6.573-8.568,14.358-10.04,17.912c-2.835,6.844-5.118,14.541-5.918,21.636l-39.549-39.548H324.563z M324.514,283.457
			c6.23-15.041,13.731-22.05,16.841-22.05h55.936c-10.173,10.078-19.098,25.769-25.347,40.854
			c-6.502,15.7-11.752,34.931-11.459,50.573c0,0.001-39.762-39.795-39.922-39.942C318.204,310.075,318.262,298.556,324.514,283.457z
			 M261.409,48.744c12.065,14.366,31.231,25.963,41.506,31.555c29.779,16.21,64.661,26.684,88.865,26.684
			c2.027,0,3.95-0.093,5.824-0.231c0,0-30.081,30.081-32.144,32.144c-2.064,2.063-7.786,3.527-14.35,3.527
			c-34.372,0-89.701-30.185-89.701-48.937V48.744z M261.409,114.984c8.565,8.832,20.138,15.806,26.68,19.366
			c21.404,11.65,45.553,18.888,63.022,18.888c0.002,0,0.004,0,0.008,0l-39.371,39.368c-0.664,0.452-2.275,1.173-5.794,1.173
			c-17.023,0-44.522-15.557-44.545-23.125V114.984z M261.408,187.637c10.389,8.345,26.294,14.863,38.775,16.534l-38.775,38.774
			V187.637z M261.408,269.057L261.408,269.057l39.575,39.574c-12.111,1.481-28.781,7.575-39.575,15.901V269.057z M261.408,341.347
			c0.011-2.29,4.089-7.814,15.3-13.684c9.942-5.205,21.527-8.568,29.517-8.568c4.53,0,6.233,1.075,6.748,1.525l39.828,39.828
			c-0.393-0.006-0.776-0.023-1.176-0.023c-17.827,0-42.152,6.938-63.482,18.106c-7.867,4.12-18.717,10.639-26.734,18.688v-55.873
			H261.408z M392.515,407.392c-39.285,0-105.29,25.965-131.106,56.218v-45.117c0.023-8.368,12.48-20.289,31.75-30.379
			c19.576-10.25,42.524-16.872,58.465-16.872c7.723,0,13.365,1.514,16.344,4.375l32.106,32.106
			C397.676,407.506,395.16,407.392,392.515,407.392z M423.659,322.931c-10.03,24.217-18.047,54.383-15.987,77.092
			c0,0-31.948-31.988-32.135-32.153c-7.541-8.081-4.826-34.362,6.401-61.467c10.798-26.071,26.182-44.994,36.578-44.994h44.963
			C447.549,275.037,433.356,299.519,423.659,322.931z"/>
	</g>
</g>
<g>
</g>
<g>
</g>
<g>
</g>
<g>
</g>
<g>
</g>
<g>
</g>
<g>
</g>
<g>
</g>
<g>
</g>
<g>
</g>
<g>
</g>
<g>
</g>
<g>
</g>
<g>
</g>
<g>
</g>
</svg>
