<?xml version="1.0" encoding="iso-8859-1"?>
<!-- Generator: Adobe Illustrator 19.0.0, SVG Export Plug-In . SVG Version: 6.00 Build 0)  -->
<svg version="1.1" id="Capa_1" xmlns="http://www.w3.org/2000/svg" xmlns:xlink="http://www.w3.org/1999/xlink" x="0px" y="0px"
	 viewBox="0 0 512 512" style="enable-background:new 0 0 512 512;" xml:space="preserve">
<path style="fill:#FEDB41;" d="M257,0C116.302,0,0,114.3,0,255s116.302,257,257,257s255-116.3,255-257S397.698,0,257,0z"/>
<path style="fill:#FFCC33;" d="M512,255c0,140.7-114.302,257-255,257V0C397.698,0,512,114.3,512,255z"/>
<path style="fill:#FEA832;" d="M257,60C149.598,60,60,147.599,60,255s89.598,197,197,197s195-89.599,195-197S364.402,60,257,60z"/>
<path style="fill:#FE9923;" d="M452,255c0,107.401-87.598,197-195,197V60C364.402,60,452,147.599,452,255z"/>
<path style="fill:#FEDB41;" d="M332,317c0,8.401-6.599,15-15,15h-45v45c0,8.401-6.599,15-15,15s-15-6.599-15-15v-45h-47
	c-8.401,0-15-6.599-15-15s6.599-15,15-15h47v-32h-47c-8.401,0-15-6.599-15-15s6.599-15,15-15h32.102l-44.7-66.599
	c-4.504-6.901-2.703-16.201,4.197-21c6.899-4.501,16.201-2.701,20.999,4.199L257,228l47.402-71.4
	c4.797-6.899,14.099-8.699,20.999-4.199c6.899,4.799,8.701,14.099,4.197,21L284.898,240H317c8.401,0,15,6.599,15,15s-6.599,15-15,15
	h-45v32h45C325.401,302,332,308.599,332,317z"/>
<path style="fill:#FFCC33;" d="M332,317c0,8.401-6.599,15-15,15h-45v45c0,8.401-6.599,15-15,15V227.999l47.402-71.4
	c4.797-6.899,14.099-8.699,20.999-4.199c6.899,4.799,8.701,14.099,4.197,21l-44.7,66.6H317c8.401,0,15,6.599,15,15s-6.599,15-15,15
	h-45v32h45C325.401,302,332,308.599,332,317z"/>
<g>
</g>
<g>
</g>
<g>
</g>
<g>
</g>
<g>
</g>
<g>
</g>
<g>
</g>
<g>
</g>
<g>
</g>
<g>
</g>
<g>
</g>
<g>
</g>
<g>
</g>
<g>
</g>
<g>
</g>
</svg>
